# xmcd CD database file
#
# Track frame offsets:
#	150
#	18689
#	36055
#	51608
#	68676
#	86402
#	100690
#	119617
#	134128
#	148326
#
# Disc length: 2291 seconds
#
# Revision: 1
# Processed by: cddbd v1.5.2PL0 Copyright (c) Steve Scherf et al.
# Submitted via: CDex 1.70beta2
#
DISCID=9808f10a
DTITLE=Chris De Burgh - Eastern Wind
DYEAR=1980
DGENRE=
TTITLE0=The traveller
TTITLE1=The record company bash
TTITLE2=Tonight
TTITLE3=Wall of silence
TTITLE4=Flying home
TTITLE5=Shadows and lights
TTITLE6=Sailor
TTITLE7=Some things never change
TTITLE8=Tourist attraction
TTITLE9=Eastern Wind
EXTD=YEAR: 1980
EXTT0=
EXTT1=
EXTT2=
EXTT3=
EXTT4=
EXTT5=
EXTT6=
EXTT7=
EXTT8=
EXTT9=
PLAYORDER=
